<mxfile host="app.diagrams.net" modified="2023-10-26T05:21:33.322Z" agent="Mozilla/5.0 (Windows NT 10.0; Win64; x64) AppleWebKit/537.36 (KHTML, like Gecko) Chrome/118.0.0.0 Safari/537.36" etag="mRQ05yncYZtkSSivxIU1" version="22.0.8" type="github">
  <diagram name="Page-1" id="56ZI9M4sbrFyztxqkMnS">
    <mxGraphModel dx="2456" dy="593" grid="1" gridSize="10" guides="1" tooltips="1" connect="1" arrows="1" fold="1" page="1" pageScale="1" pageWidth="850" pageHeight="1100" math="0" shadow="0">
      <root>
        <mxCell id="0" />
        <mxCell id="1" parent="0" />
        <mxCell id="nyZNe751WI8wfaU8Z5In-41" value="" style="group;movable=0;resizable=0;rotatable=0;deletable=0;editable=0;locked=1;connectable=0;" vertex="1" connectable="0" parent="1">
          <mxGeometry x="-80" y="160" width="1160" height="760" as="geometry" />
        </mxCell>
        <mxCell id="nyZNe751WI8wfaU8Z5In-39" value="" style="rounded=0;whiteSpace=wrap;html=1;movable=1;resizable=1;rotatable=1;deletable=1;editable=1;locked=0;connectable=1;" vertex="1" parent="nyZNe751WI8wfaU8Z5In-41">
          <mxGeometry width="1160" height="760" as="geometry" />
        </mxCell>
        <mxCell id="nyZNe751WI8wfaU8Z5In-38" value="" style="group" vertex="1" connectable="0" parent="nyZNe751WI8wfaU8Z5In-41">
          <mxGeometry x="128.22" y="170" width="903.56" height="510" as="geometry" />
        </mxCell>
        <mxCell id="nyZNe751WI8wfaU8Z5In-1" value="" style="ellipse;whiteSpace=wrap;html=1;aspect=fixed;strokeWidth=2;strokeColor=#FF8000;" vertex="1" parent="nyZNe751WI8wfaU8Z5In-38">
          <mxGeometry x="100" y="30" width="80" height="80" as="geometry" />
        </mxCell>
        <mxCell id="nyZNe751WI8wfaU8Z5In-2" value="" style="shape=image;html=1;verticalAlign=top;verticalLabelPosition=bottom;labelBackgroundColor=#ffffff;imageAspect=0;aspect=fixed;image=https://cdn0.iconfinder.com/data/icons/kameleon-free-pack/110/Hacker-128.png;clipPath=inset(25% 19.53% 18.75% 18.75%);" vertex="1" parent="nyZNe751WI8wfaU8Z5In-38">
          <mxGeometry x="113.39" y="45.75" width="53.21" height="48.5" as="geometry" />
        </mxCell>
        <mxCell id="nyZNe751WI8wfaU8Z5In-9" value="" style="whiteSpace=wrap;html=1;aspect=fixed;fillColor=#333333;strokeColor=#FFFFFF;strokeWidth=3;" vertex="1" parent="nyZNe751WI8wfaU8Z5In-38">
          <mxGeometry x="740" y="30" width="80" height="80" as="geometry" />
        </mxCell>
        <mxCell id="nyZNe751WI8wfaU8Z5In-10" value="" style="shape=image;html=1;verticalAlign=top;verticalLabelPosition=bottom;labelBackgroundColor=#ffffff;imageAspect=0;aspect=fixed;image=https://cdn1.iconfinder.com/data/icons/ionicons-outline-vol-2/512/qr-code-outline-128.png" vertex="1" parent="nyZNe751WI8wfaU8Z5In-38">
          <mxGeometry x="746.4399999999999" y="36.44" width="67.12" height="67.12" as="geometry" />
        </mxCell>
        <mxCell id="nyZNe751WI8wfaU8Z5In-14" value="" style="group" vertex="1" connectable="0" parent="nyZNe751WI8wfaU8Z5In-38">
          <mxGeometry x="730" y="340" width="50" height="50" as="geometry" />
        </mxCell>
        <mxCell id="nyZNe751WI8wfaU8Z5In-12" value="" style="whiteSpace=wrap;html=1;aspect=fixed;fillColor=#333333;strokeColor=#FFFFFF;strokeWidth=3;" vertex="1" parent="nyZNe751WI8wfaU8Z5In-14">
          <mxGeometry width="50" height="50" as="geometry" />
        </mxCell>
        <mxCell id="nyZNe751WI8wfaU8Z5In-13" value="" style="shape=image;html=1;verticalAlign=top;verticalLabelPosition=bottom;labelBackgroundColor=#ffffff;imageAspect=0;aspect=fixed;image=https://cdn1.iconfinder.com/data/icons/ionicons-outline-vol-2/512/qr-code-outline-128.png" vertex="1" parent="nyZNe751WI8wfaU8Z5In-14">
          <mxGeometry x="4.024999999999963" y="4.024999999999999" width="41.95" height="41.95" as="geometry" />
        </mxCell>
        <mxCell id="nyZNe751WI8wfaU8Z5In-11" value="" style="verticalLabelPosition=bottom;verticalAlign=top;html=1;shadow=0;dashed=0;strokeWidth=1;shape=mxgraph.android.phone2;strokeColor=#000000;fillColor=#66FFFF;" vertex="1" parent="nyZNe751WI8wfaU8Z5In-38">
          <mxGeometry x="743.56" y="314" width="70" height="146.44" as="geometry" />
        </mxCell>
        <mxCell id="nyZNe751WI8wfaU8Z5In-23" value="" style="sketch=0;outlineConnect=0;fontColor=#232F3E;gradientColor=none;fillColor=#0066CC;strokeColor=none;dashed=0;verticalLabelPosition=bottom;verticalAlign=top;align=center;html=1;fontSize=12;fontStyle=0;aspect=fixed;pointerEvents=1;shape=mxgraph.aws4.servers;" vertex="1" parent="nyZNe751WI8wfaU8Z5In-38">
          <mxGeometry x="109.99" y="360" width="60" height="60" as="geometry" />
        </mxCell>
        <mxCell id="nyZNe751WI8wfaU8Z5In-25" value="" style="endArrow=classic;html=1;rounded=0;flowAnimation=1;" edge="1" parent="nyZNe751WI8wfaU8Z5In-38">
          <mxGeometry width="50" height="50" relative="1" as="geometry">
            <mxPoint x="130" y="120" as="sourcePoint" />
            <mxPoint x="130" y="350" as="targetPoint" />
          </mxGeometry>
        </mxCell>
        <mxCell id="nyZNe751WI8wfaU8Z5In-26" value="" style="endArrow=classic;html=1;rounded=0;flowAnimation=1;" edge="1" parent="nyZNe751WI8wfaU8Z5In-38">
          <mxGeometry width="50" height="50" relative="1" as="geometry">
            <mxPoint x="150" y="350" as="sourcePoint" />
            <mxPoint x="150" y="120" as="targetPoint" />
          </mxGeometry>
        </mxCell>
        <mxCell id="nyZNe751WI8wfaU8Z5In-27" value="" style="endArrow=classic;html=1;rounded=0;flowAnimation=1;" edge="1" parent="nyZNe751WI8wfaU8Z5In-38">
          <mxGeometry width="50" height="50" relative="1" as="geometry">
            <mxPoint x="190" y="70" as="sourcePoint" />
            <mxPoint x="730" y="70" as="targetPoint" />
          </mxGeometry>
        </mxCell>
        <mxCell id="nyZNe751WI8wfaU8Z5In-28" value="" style="endArrow=classic;html=1;rounded=0;entryX=0;entryY=0;entryDx=0;entryDy=0;entryPerimeter=0;flowAnimation=1;" edge="1" parent="nyZNe751WI8wfaU8Z5In-38" target="nyZNe751WI8wfaU8Z5In-12">
          <mxGeometry width="50" height="50" relative="1" as="geometry">
            <mxPoint x="190" y="90" as="sourcePoint" />
            <mxPoint x="730" y="330" as="targetPoint" />
          </mxGeometry>
        </mxCell>
        <mxCell id="nyZNe751WI8wfaU8Z5In-30" value="" style="endArrow=classic;html=1;rounded=0;flowAnimation=1;" edge="1" parent="nyZNe751WI8wfaU8Z5In-38">
          <mxGeometry width="50" height="50" relative="1" as="geometry">
            <mxPoint x="710" y="360" as="sourcePoint" />
            <mxPoint x="169.99" y="110" as="targetPoint" />
          </mxGeometry>
        </mxCell>
        <mxCell id="nyZNe751WI8wfaU8Z5In-31" value="1) The Attacker initiates a client-side QR session &lt;br&gt;and clones the login QR Code into Phishing website." style="text;html=1;align=center;verticalAlign=middle;resizable=0;points=[];autosize=1;strokeColor=none;fillColor=none;fontFamily=Verdana;" vertex="1" parent="nyZNe751WI8wfaU8Z5In-38">
          <mxGeometry x="275" y="13" width="340" height="40" as="geometry" />
        </mxCell>
        <mxCell id="nyZNe751WI8wfaU8Z5In-32" value="&lt;font size=&quot;1&quot; face=&quot;Verdana&quot;&gt;&lt;b style=&quot;font-size: 14px;&quot;&gt;Attacker&lt;/b&gt;&lt;/font&gt;" style="text;html=1;align=center;verticalAlign=middle;resizable=0;points=[];autosize=1;strokeColor=none;fillColor=none;" vertex="1" parent="nyZNe751WI8wfaU8Z5In-38">
          <mxGeometry x="95" width="90" height="30" as="geometry" />
        </mxCell>
        <mxCell id="nyZNe751WI8wfaU8Z5In-33" value="2) The Attacker sends the &lt;br&gt;phishing page to victim." style="text;html=1;align=center;verticalAlign=middle;resizable=0;points=[];autosize=1;strokeColor=none;fillColor=none;fontFamily=Verdana;" vertex="1" parent="nyZNe751WI8wfaU8Z5In-38">
          <mxGeometry x="370" y="140" width="180" height="40" as="geometry" />
        </mxCell>
        <mxCell id="nyZNe751WI8wfaU8Z5In-34" value="Now a well crafted phishing page with &lt;br style=&quot;font-size: 11px;&quot;&gt;a valid and regularly updated code is &lt;br style=&quot;font-size: 11px;&quot;&gt;ready to be sent to the victim." style="text;html=1;align=center;verticalAlign=middle;resizable=0;points=[];autosize=1;strokeColor=none;fillColor=none;fontFamily=Verdana;fontSize=11;" vertex="1" parent="nyZNe751WI8wfaU8Z5In-38">
          <mxGeometry x="663.56" y="115" width="230" height="50" as="geometry" />
        </mxCell>
        <mxCell id="nyZNe751WI8wfaU8Z5In-35" value="3) The victim scans the QR Code with&lt;br&gt;&amp;nbsp;a specific Targeted Mobile App." style="text;html=1;align=center;verticalAlign=middle;resizable=0;points=[];autosize=1;strokeColor=none;fillColor=none;fontFamily=Verdana;" vertex="1" parent="nyZNe751WI8wfaU8Z5In-38">
          <mxGeometry x="653.56" y="470" width="250" height="40" as="geometry" />
        </mxCell>
        <mxCell id="nyZNe751WI8wfaU8Z5In-36" value="4) The Attacker gains &lt;br&gt;controls over the victim&#39;s account." style="text;html=1;align=center;verticalAlign=middle;resizable=0;points=[];autosize=1;strokeColor=none;fillColor=none;fontFamily=Verdana;" vertex="1" parent="nyZNe751WI8wfaU8Z5In-38">
          <mxGeometry x="420" y="310" width="230" height="40" as="geometry" />
        </mxCell>
        <mxCell id="nyZNe751WI8wfaU8Z5In-37" value="The service is exchanging all the &lt;br&gt;victim&#39;s data with the attacker&#39;s sessions." style="text;html=1;align=center;verticalAlign=middle;resizable=0;points=[];autosize=1;strokeColor=none;fillColor=none;fontFamily=Verdana;" vertex="1" parent="nyZNe751WI8wfaU8Z5In-38">
          <mxGeometry y="440" width="280" height="40" as="geometry" />
        </mxCell>
        <mxCell id="nyZNe751WI8wfaU8Z5In-40" value="&lt;font style=&quot;font-size: 24px;&quot;&gt;&lt;b&gt;WHAT IS QR CODE PHISHING?&lt;/b&gt;&lt;/font&gt;" style="text;html=1;align=center;verticalAlign=middle;resizable=0;points=[];autosize=1;strokeColor=none;fillColor=none;strokeWidth=9;" vertex="1" parent="nyZNe751WI8wfaU8Z5In-41">
          <mxGeometry x="390" y="40" width="380" height="40" as="geometry" />
        </mxCell>
      </root>
    </mxGraphModel>
  </diagram>
</mxfile>
